<svg xmlns="http://www.w3.org/2000/svg" xmlns:xlink="http://www.w3.org/1999/xlink" xmlns:svgjs="http://svgjs.com/svgjs" viewBox="0 0 64 64" width="64" height="64"><g transform="matrix(2.6666666666666665,0,0,2.6666666666666665,0,0)"><path d="M11.379 5.871L2.893 14.357 0.772 12.235" fill="none" stroke="#16bfbf" stroke-linecap="round" stroke-linejoin="round" stroke-width="1.5"></path><path d="M2.893 10.114L5.015 12.235" fill="none" stroke="#16bfbf" stroke-linecap="round" stroke-linejoin="round" stroke-width="1.5"></path><path d="M13.5,6.75a3,3,0,1,1,2.123-5.121,3.029,3.029,0,0,1,.478.621" fill="none" stroke="#16bfbf" stroke-linecap="round" stroke-linejoin="round" stroke-width="1.5"></path><path d="M11.25,18v3.75a1.5,1.5,0,0,0,1.5,1.5h6a1.5,1.5,0,0,0,1.5-1.5V18" fill="none" stroke="#16bfbf" stroke-linecap="round" stroke-linejoin="round" stroke-width="1.5"></path><path d="M23.25,17.25l-6.5-5.847a1.5,1.5,0,0,0-2.006,0L8.25,17.25" fill="none" stroke="#16bfbf" stroke-linecap="round" stroke-linejoin="round" stroke-width="1.5"></path><path d="M21.75 15.9L21.75 12" fill="none" stroke="#16bfbf" stroke-linecap="round" stroke-linejoin="round" stroke-width="1.5"></path><path d="M13.5,3.75h0A2.25,2.25,0,0,1,15.75,6v9" fill="none" stroke="#16bfbf" stroke-linecap="round" stroke-linejoin="round" stroke-width="1.5"></path></g></svg>