<svg xmlns="http://www.w3.org/2000/svg" xmlns:xlink="http://www.w3.org/1999/xlink" xmlns:svgjs="http://svgjs.com/svgjs" viewBox="0 0 64 64" width="64" height="64"><g transform="matrix(2.6666666666666665,0,0,2.6666666666666665,0,0)"><path d="M14.96,17.22l-.633,5.241a.666.666,0,0,0,1.127.591l1.823-1.822L19.1,23.052a.667.667,0,0,0,1.128-.591l-.641-5.277" fill="none" stroke="#16bfbf" stroke-linecap="round" stroke-linejoin="round" stroke-width="1.5"></path><path d="M13.500 14.250 A3.750 3.750 0 1 0 21.000 14.250 A3.750 3.750 0 1 0 13.500 14.250 Z" fill="none" stroke="#16bfbf" stroke-linecap="round" stroke-linejoin="round" stroke-width="1.5"></path><path d="M10.5,20.25h-6A1.5,1.5,0,0,1,3,18.75V2.25A1.5,1.5,0,0,1,4.5.75H15.129a1.5,1.5,0,0,1,1.06.439l2.872,2.872a1.5,1.5,0,0,1,.439,1.06V8.25" fill="none" stroke="#16bfbf" stroke-linecap="round" stroke-linejoin="round" stroke-width="1.5"></path></g></svg>