<svg xmlns="http://www.w3.org/2000/svg" viewBox="0 0 40 40"><g transform="matrix(1.6666666666666667,0,0,1.6666666666666667,0,0)"><g><path d="M12.37,15a3.75,3.75,0,1,1-3.74-3.75" style="fill: none;stroke: #fff;stroke-linecap: round;stroke-linejoin: round;stroke-width: 1.5px"></path><path d="M15.86,13a7.78,7.78,0,0,1,.26,2A7.47,7.47,0,1,1,11,7.88" style="fill: none;stroke: #fff;stroke-linecap: round;stroke-linejoin: round;stroke-width: 1.5px"></path><line x1="8.63" y1="15" x2="15.45" y2="8.17" style="fill: none;stroke: #fff;stroke-linecap: round;stroke-linejoin: round;stroke-width: 1.5px"></line><line x1="1.13" y1="23.25" x2="3.71" y2="20.66" style="fill: none;stroke: #fff;stroke-linecap: round;stroke-linejoin: round;stroke-width: 1.5px"></line><line x1="16.12" y1="23.25" x2="13.54" y2="20.67" style="fill: none;stroke: #fff;stroke-linecap: round;stroke-linejoin: round;stroke-width: 1.5px"></line><path d="M19.69,8.17a1.46,1.46,0,0,1-1.27.43l-3-.43L15,5.2a1.51,1.51,0,0,1,.42-1.27L18.63.75l.91,3.34,3.33.9Z" style="fill: none;stroke: #fff;stroke-linecap: round;stroke-linejoin: round;stroke-width: 1.5px"></path></g></g></svg>