<svg xmlns="http://www.w3.org/2000/svg" viewBox="0 0 40 40"><g transform="matrix(1.6666666666666667,0,0,1.6666666666666667,0,0)"><g><path d="M17.25.75H3.75a3,3,0,0,0-3,3v18a1.5,1.5,0,0,0,1.5,1.5H3.68" style="fill: none;stroke: #ffffff;stroke-linecap: round;stroke-linejoin: round;stroke-width: 1.5px"></path><line x1="3.75" y1="5.5" x2="11" y2="5.5" style="fill: none;stroke: #ffffff;stroke-linecap: round;stroke-linejoin: round;stroke-width: 1.5px"></line><line x1="3.75" y1="9.5" x2="8.61" y2="9.5" style="fill: none;stroke: #ffffff;stroke-linecap: round;stroke-linejoin: round;stroke-width: 1.5px"></line><path d="M15,9.75V3A2.25,2.25,0,0,1,17.25.75h0A2.25,2.25,0,0,1,19.5,3V5.5H15" style="fill: none;stroke: #ffffff;stroke-linecap: round;stroke-linejoin: round;stroke-width: 1.5px"></path><g><line x1="21.75" y1="19.61" x2="16.96" y2="20.57" style="fill: none;stroke: #ffffff;stroke-linecap: round;stroke-linejoin: round;stroke-width: 1.5px"></line><path d="M17.44,15.14l-2.26.95a1.41,1.41,0,0,1-1.12,0A1.52,1.52,0,0,1,14,13.35l2.26-1.13a2,2,0,0,1,.9-.22,1.8,1.8,0,0,1,.69.13L22.47,14" style="fill: none;stroke: #ffffff;stroke-linecap: round;stroke-linejoin: round;stroke-width: 1.5px"></path><path d="M8.2,20.61H9.79l3.05,2.32A.82.82,0,0,0,14,23l4.26-3.52a.83.83,0,0,0,.13-1.16L16,15.73" style="fill: none;stroke: #ffffff;stroke-linecap: round;stroke-linejoin: round;stroke-width: 1.5px"></path><path d="M13.74,13.51l-.25-.21A1.83,1.83,0,0,0,12.43,13a1.93,1.93,0,0,0-.67.12L8.19,14.6" style="fill: none;stroke: #ffffff;stroke-linecap: round;stroke-linejoin: round;stroke-width: 1.5px"></path><path d="M6.75,21.36h.3a1.14,1.14,0,0,0,1.2-1.08V14.93a1.14,1.14,0,0,0-1.2-1.07h-.3" style="fill: none;stroke: #ffffff;stroke-linecap: round;stroke-linejoin: round;stroke-width: 1.5px"></path><path d="M23.25,21.36H23a1.14,1.14,0,0,1-1.2-1.08V14.93A1.14,1.14,0,0,1,23,13.86h.3" style="fill: none;stroke: #ffffff;stroke-linecap: round;stroke-linejoin: round;stroke-width: 1.5px"></path></g></g></g></svg>