<svg xmlns="http://www.w3.org/2000/svg" viewBox="0 0 40 40"><g transform="matrix(1.6666666666666667,0,0,1.6666666666666667,0,0)"><g><path d="M11.5,13.5H3.75A1.5,1.5,0,0,1,2.25,12V2.25A1.51,1.51,0,0,1,3.75.75h16.5a1.51,1.51,0,0,1,1.5,1.5V12a1.51,1.51,0,0,1-1.5,1.5h-5" style="fill: none;stroke: #ffffff;stroke-linecap: round;stroke-linejoin: round;stroke-width: 1.5px"></path><line x1="12.9" y1="4.25" x2="18.75" y2="4.25" style="fill: none;stroke: #ffffff;stroke-linecap: round;stroke-linejoin: round;stroke-width: 1.5px"></line><path d="M15.25,13.5V10.13a1.88,1.88,0,1,0-3.75,0v4.35L11,16.43a5.54,5.54,0,0,0,0,2.92,13.88,13.88,0,0,0,1.24,1.95v1.95H19c0-4.41-.11-3.75.56-6.8.32-1.45.49-2.95.49-2.95" style="fill: none;stroke: #ffffff;stroke-linecap: round;stroke-linejoin: round;stroke-width: 1.5px"></path><circle cx="7.5" cy="6.38" r="2.25" style="fill: none;stroke: #ffffff;stroke-linecap: round;stroke-linejoin: round;stroke-width: 1.5px"></circle><path d="M11.18,15.75a6.32,6.32,0,0,1-2,2.34c-.72.37-2.28.14-2.28-1.19V13.5" style="fill: none;stroke: #ffffff;stroke-linecap: round;stroke-linejoin: round;stroke-width: 1.5px"></path></g></g></svg>