<svg xmlns="http://www.w3.org/2000/svg" viewBox="0 0 40 40"><g transform="matrix(1.6666666666666667,0,0,1.6666666666666667,0,0)"><path d="M12.75,15.948v5.8a1.5,1.5,0,0,0,1.5,1.5h6a1.5,1.5,0,0,0,1.5-1.5v-5.8" fill="none" stroke="#ffffff" stroke-linecap="round" stroke-linejoin="round" stroke-width="1.5"></path><path d="M11.25,17.26l4.518-3.953a2.249,2.249,0,0,1,2.964,0L23.25,17.26" fill="none" stroke="#ffffff" stroke-linecap="round" stroke-linejoin="round" stroke-width="1.5"></path><path d="M18.75,23.25h-3v-3a1.5,1.5,0,0,1,3,0Z" fill="none" stroke="#ffffff" stroke-linecap="round" stroke-linejoin="round" stroke-width="1.5"></path><path d="M3.75 6.75L3.75 15.75 8.25 15.75" fill="none" stroke="#ffffff" stroke-linecap="round" stroke-linejoin="round" stroke-width="1.5"></path><path d="M3.75,12.75l2.689-2.689a1.5,1.5,0,0,1,2.122,0l.581.581a1.5,1.5,0,0,0,2.346-.289l.358-.6" fill="none" stroke="#ffffff" stroke-linecap="round" stroke-linejoin="round" stroke-width="1.5"></path><path d="M9,20.25H2.25a1.5,1.5,0,0,1-1.5-1.5V2.25A1.5,1.5,0,0,1,2.25.75H12.879a1.5,1.5,0,0,1,1.06.439l2.872,2.872a1.5,1.5,0,0,1,.439,1.06V9.75" fill="none" stroke="#ffffff" stroke-linecap="round" stroke-linejoin="round" stroke-width="1.5"></path></g></svg>